<svg id="color_line" height="512" viewBox="0 0 74 74" width="512" xmlns="http://www.w3.org/2000/svg" data-name="color line"><rect fill="#9297ab" height="49.475" rx="4.14" width="67.333" x="3.908" y="4.316"/><path d="m71.245 8.452v41.2a4.139 4.139 0 0 1 -2.66 3.86 3.944 3.944 0 0 0 .2-1.25v-41.19a4.142 4.142 0 0 0 -4.14-4.14h-59.06a4.069 4.069 0 0 0 -1.49.28 4.148 4.148 0 0 1 3.95-2.9h59.055a4.148 4.148 0 0 1 4.145 4.14z" fill="#84879c"/><path d="m24.754 7.303h37.475v43.5h-37.475z" fill="#eeefee" transform="matrix(0 1 -1 0 72.545 -14.439)"/><path d="m62.535 10.312h2.71v37.48h-2.71z" fill="#e1e6e9"/><rect fill="#d5d6db" height="7.5" rx="1.052" width="4.833" x="10.471" y="12.678"/><path d="m14.252 20.678h-2.729a1.554 1.554 0 0 1 -1.552-1.552v-5.4a1.554 1.554 0 0 1 1.552-1.552h2.729a1.554 1.554 0 0 1 1.548 1.556v5.4a1.554 1.554 0 0 1 -1.548 1.548zm-2.729-7.5a.553.553 0 0 0 -.552.552v5.4a.553.553 0 0 0 .552.552h2.729a.553.553 0 0 0 .552-.552v-5.4a.553.553 0 0 0 -.552-.552z" fill="#323c6b"/><rect fill="#d5d6db" height="7.5" rx="1.052" width="4.833" x="10.471" y="37.929"/><path d="m14.252 45.929h-2.729a1.554 1.554 0 0 1 -1.552-1.552v-5.4a1.554 1.554 0 0 1 1.552-1.552h2.729a1.554 1.554 0 0 1 1.548 1.555v5.4a1.554 1.554 0 0 1 -1.548 1.549zm-2.729-7.5a.553.553 0 0 0 -.552.552v5.4a.553.553 0 0 0 .552.552h2.729a.553.553 0 0 0 .552-.552v-5.4a.553.553 0 0 0 -.552-.552z" fill="#323c6b"/><circle cx="13.262" cy="29.053" fill="#d5d6db" r="4.063"/><path d="m13.262 33.616a4.563 4.563 0 1 1 4.562-4.563 4.568 4.568 0 0 1 -4.562 4.563zm0-8.125a3.563 3.563 0 1 0 3.562 3.563 3.567 3.567 0 0 0 -3.562-3.563z" fill="#323c6b"/><path d="m53.492 33.918a.5.5 0 0 1 -.5-.5 9.5 9.5 0 0 0 -19 0 .5.5 0 0 1 -1 0 10.5 10.5 0 0 1 21 0 .5.5 0 0 1 -.5.5z" fill="#323c6b"/><path d="m53.471 23.918h-19.958a.5.5 0 0 1 0-1h19.958a.5.5 0 1 1 0 1z" fill="#323c6b"/><circle cx="31.45" cy="23.418" fill="#9297ab" r="2.063"/><path d="m31.45 25.98a2.563 2.563 0 1 1 2.562-2.562 2.566 2.566 0 0 1 -2.562 2.562zm0-4.125a1.563 1.563 0 1 0 1.562 1.563 1.565 1.565 0 0 0 -1.562-1.563z" fill="#323c6b"/><circle cx="55.533" cy="23.418" fill="#9297ab" r="2.063"/><path d="m55.533 25.98a2.563 2.563 0 1 1 2.567-2.562 2.565 2.565 0 0 1 -2.567 2.562zm0-4.125a1.563 1.563 0 1 0 1.567 1.563 1.565 1.565 0 0 0 -1.567-1.563z" fill="#323c6b"/><path d="m41.992 21.751h3.333v3.333h-3.333z" fill="#9297ab"/><path d="m45.325 25.584h-3.333a.5.5 0 0 1 -.5-.5v-3.333a.5.5 0 0 1 .5-.5h3.333a.5.5 0 0 1 .5.5v3.333a.5.5 0 0 1 -.5.5zm-2.833-1h2.333v-2.333h-2.333z" fill="#323c6b"/><path d="m31.825 33.418h3.333v3.333h-3.333z" fill="#9297ab"/><path d="m35.158 37.251h-3.333a.5.5 0 0 1 -.5-.5v-3.333a.5.5 0 0 1 .5-.5h3.333a.5.5 0 0 1 .5.5v3.333a.5.5 0 0 1 -.5.5zm-2.833-1h2.333v-2.333h-2.333z" fill="#323c6b"/><path d="m51.825 33.418h3.333v3.333h-3.333z" fill="#9297ab"/><path d="m55.158 37.251h-3.333a.5.5 0 0 1 -.5-.5v-3.333a.5.5 0 0 1 .5-.5h3.333a.5.5 0 0 1 .5.5v3.333a.5.5 0 0 1 -.5.5zm-2.833-1h2.333v-2.333h-2.333z" fill="#323c6b"/><path d="m19.641 59.949h39.622a2.514 2.514 0 0 1 2.514 2.514v4.708a2.514 2.514 0 0 1 -2.514 2.514h-39.622a0 0 0 0 1 0 0v-9.736a0 0 0 0 1 0 0z" fill="#9297ab"/><path d="m61.775 62.462v2.1a2.512 2.512 0 0 0 -2.51-2.51h-39.62v-2.1h39.62a2.505 2.505 0 0 1 2.51 2.51z" fill="#84879c"/><path d="m61.9 67.532h.77a2.716 2.716 0 0 0 2.716-2.716 2.716 2.716 0 0 0 -2.717-2.716h-.769z" fill="#707583"/><path d="m62.668 68.032h-.768a.5.5 0 0 1 -.5-.5v-5.432a.5.5 0 0 1 .5-.5h.77a3.216 3.216 0 0 1 0 6.432zm-.27-1h.27a2.216 2.216 0 0 0 0-4.432h-.268z" fill="#323c6b"/><path d="m9.808 64.817 9.833 4.867v-9.735z" fill="#707583"/><g fill="#323c6b"><path d="m19.641 70.185a.5.5 0 0 1 -.222-.052l-9.833-4.868a.5.5 0 0 1 0-.9l9.833-4.865a.5.5 0 0 1 .722.448v9.736a.5.5 0 0 1 -.5.5zm-8.707-5.368 8.207 4.063v-8.126z"/><path d="m1.337 6.54a.49.49 0 0 1 -.169-.03.5.5 0 0 1 -.3-.64 7.658 7.658 0 0 1 7.18-5.055h1.777a.5.5 0 0 1 0 1h-1.777a6.657 6.657 0 0 0 -6.24 4.394.5.5 0 0 1 -.471.331z"/><path d="m12.971 1.815h-.542a.5.5 0 0 1 0-1h.542a.5.5 0 0 1 0 1z"/><path d="m56.137 73.185h-10.406a.5.5 0 0 1 0-1h10.406a.5.5 0 0 1 0 1z"/><path d="m43.325 73.185h-.875a.5.5 0 0 1 0-1h.875a.5.5 0 0 1 0 1z"/><path d="m67.1 54.291h-59.052a4.645 4.645 0 0 1 -4.64-4.64v-41.195a4.645 4.645 0 0 1 4.64-4.64h59.052a4.645 4.645 0 0 1 4.64 4.64v41.195a4.645 4.645 0 0 1 -4.64 4.64zm-59.052-49.475a3.644 3.644 0 0 0 -3.64 3.64v41.195a3.644 3.644 0 0 0 3.64 3.64h59.052a3.644 3.644 0 0 0 3.64-3.64v-41.195a3.644 3.644 0 0 0 -3.64-3.64z"/><path d="m65.242 48.291h-43.5a.5.5 0 0 1 -.5-.5v-37.476a.5.5 0 0 1 .5-.5h43.5a.5.5 0 0 1 .5.5v37.476a.5.5 0 0 1 -.5.5zm-43-1h42.5v-36.476h-42.5z"/><path d="m59.263 70.185h-39.622a.5.5 0 0 1 -.5-.5v-9.736a.5.5 0 0 1 .5-.5h39.622a3.017 3.017 0 0 1 3.014 3.014v4.708a3.017 3.017 0 0 1 -3.014 3.014zm-39.122-1h39.122a2.016 2.016 0 0 0 2.014-2.014v-4.709a2.016 2.016 0 0 0 -2.014-2.014h-39.122z"/></g><path d="m36.766 51.35h-8.253a.671.671 0 1 1 0-1.343h8.253a.671.671 0 1 1 0 1.343z" fill="#fff"/><path d="m40.278 51.35h-.76a.671.671 0 1 1 0-1.343h.76a.671.671 0 1 1 0 1.343z" fill="#fff"/></svg>