<?xml version="1.0" encoding="utf-8"?>
<!-- Generator: Adobe Illustrator 16.0.0, SVG Export Plug-In . SVG Version: 6.00 Build 0)  -->
<!DOCTYPE svg PUBLIC "-//W3C//DTD SVG 1.1//EN" "http://www.w3.org/Graphics/SVG/1.1/DTD/svg11.dtd">
<svg version="1.1" id="Layer_1" xmlns="http://www.w3.org/2000/svg" xmlns:xlink="http://www.w3.org/1999/xlink" x="0px" y="0px"
	 width="512px" height="512px" viewBox="0 0 512 512" enable-background="new 0 0 512 512" xml:space="preserve">
<path fill="#818181" d="M261.039,512c-1.695,0-3.391,0-5.098-0.008c-40.133,0.098-77.215-0.922-113.277-3.117
	c-33.063-2.012-63.242-13.438-87.281-33.039c-23.195-18.914-39.035-44.488-47.078-76.004c-7-27.438-7.371-54.371-7.727-80.422
	C0.32,300.719,0.055,278.57,0,256.047c0.055-22.617,0.32-44.766,0.578-63.457c0.355-26.047,0.727-52.98,7.727-80.422
	c8.043-31.516,23.883-57.09,47.078-76.004c24.039-19.602,54.219-31.027,87.285-33.039C178.73,0.934,215.82-0.09,256.039,0.008
	c40.145-0.086,77.215,0.926,113.277,3.117c33.063,2.012,63.242,13.438,87.281,33.039c23.199,18.914,39.035,44.488,47.078,76.004
	c7,27.438,7.371,54.375,7.727,80.422c0.258,18.691,0.527,40.84,0.578,63.363c-0.051,22.617-0.32,44.766-0.578,63.457
	c-0.148,11.047-9.273,19.875-20.27,19.727c-11.047-0.152-19.875-9.23-19.727-20.273c0.254-18.582,0.523-40.586,0.574-62.91
	c-0.051-22.23-0.32-44.234-0.574-62.816c-0.324-23.715-0.66-48.238-6.488-71.078c-5.879-23.039-17.184-41.508-33.598-54.895
	c-17.754-14.48-39.434-22.594-64.434-24.113c-35.215-2.141-71.465-3.129-110.848-3.047c-39.477-0.094-75.73,0.906-110.945,3.047
	c-25,1.52-46.676,9.633-64.434,24.109c-16.414,13.387-27.719,31.855-33.598,54.898c-5.828,22.84-6.164,47.363-6.488,71.078
	c-0.254,18.582-0.52,40.586-0.574,62.91c0.055,22.23,0.32,44.234,0.574,62.816c0.324,23.715,0.66,48.238,6.488,71.078
	c5.879,23.039,17.184,41.508,33.598,54.895c17.758,14.48,39.434,22.594,64.434,24.113c35.215,2.141,71.477,3.141,110.852,3.043
	c39.48,0.094,75.727-0.902,110.941-3.043c25-1.52,46.676-9.633,64.434-24.113c11.824-9.645,21.063-22.02,27.457-36.785
	c4.391-10.133,16.164-14.793,26.301-10.402s14.793,16.164,10.406,26.301c-8.965,20.699-22.047,38.156-38.887,51.887
	c-24.039,19.605-54.219,31.027-87.281,33.039C334.781,510.977,299.305,512,261.039,512z M379.988,256c0-68.926-56.074-125-125-125
	c-68.922,0-125,56.074-125,125s56.078,125,125,125C323.914,381,379.988,324.926,379.988,256z M339.988,256c0,46.867-38.129,85-85,85
	c-46.867,0-85-38.133-85-85s38.133-85,85-85C301.859,171,339.988,209.133,339.988,256z M393.988,91c-16.566,0-30,13.43-30,30
	s13.434,30,30,30c16.57,0,30-13.43,30-30S410.559,91,393.988,91z"/>
</svg>
